<?xml version="1.0" standalone="no"?>
<!DOCTYPE svg PUBLIC "-//W3C//DTD SVG 20010904//EN"
 "http://www.w3.org/TR/2001/REC-SVG-20010904/DTD/svg10.dtd">
<svg version="1.0" xmlns="http://www.w3.org/2000/svg"
 width="1254.000000pt" height="1254.000000pt" viewBox="0 0 1254.000000 1254.000000"
 preserveAspectRatio="xMidYMid meet">

<g transform="translate(0.000000,1254.000000) scale(0.100000,-0.100000)"
fill="#000000" stroke="none">
<path d="M1419 11350 c-112 -8 -129 -43 -105 -207 49 -327 234 -628 489 -797
198 -130 371 -194 652 -237 62 -10 751 -14 3050 -19 l2970 -6 120 -26 c205
-45 335 -101 535 -232 247 -162 462 -389 638 -671 84 -136 205 -394 251 -535
87 -271 112 -421 118 -725 6 -276 -6 -393 -62 -610 -119 -461 -314 -797 -632
-1088 -323 -294 -687 -465 -1068 -502 -33 -3 -572 -6 -1198 -8 -1002 -2 -1139
0 -1147 13 -6 9 -10 560 -10 1441 0 1172 -2 1429 -13 1438 -20 16 -111 35
-138 28 -13 -4 -125 -102 -249 -218 -124 -117 -366 -342 -538 -501 -171 -159
-318 -299 -325 -311 -9 -17 -13 -355 -15 -1558 -3 -1417 -2 -1537 13 -1552 15
-16 101 -17 1038 -16 562 1 1411 5 1887 9 938 9 916 7 1174 69 135 32 427 133
562 193 374 169 735 429 1069 769 358 366 537 651 714 1135 184 506 246 1114
165 1634 -19 125 -52 291 -71 360 -23 86 -105 331 -109 327 -2 -2 1 -18 7 -36
6 -18 9 -34 7 -37 -5 -5 -11 8 -43 98 -10 27 -22 45 -28 41 -6 -4 -8 2 -4 17
3 13 -3 45 -14 74 -23 61 -24 70 -3 36 10 -17 13 -19 9 -5 -36 106 -55 150
-114 271 -166 339 -360 617 -620 887 -325 337 -639 567 -1065 779 -320 160
-476 210 -812 258 -139 20 -186 20 -3580 23 -1892 1 -3469 0 -3505 -3z m596
-36 c-22 -17 -46 -15 -53 4 -2 8 8 12 35 12 36 -1 37 -1 18 -16z m512 10 c-3
-3 -12 -4 -19 -1 -8 3 -5 6 6 6 11 1 17 -2 13 -5z m366 -1 c-40 -2 -107 -2
-150 0 -43 1 -10 3 72 3 83 0 118 -2 78 -3z m4432 -2 c459 -1 718 -7 1137 -26
79 -4 126 -11 145 -21 26 -15 26 -15 3 -9 -35 10 -178 17 -160 7 24 -12 18
-46 -10 -54 -29 -8 186 0 245 9 l40 6 -45 13 -45 13 45 -5 c54 -6 116 -18 235
-46 185 -43 476 -170 470 -205 -4 -27 24 -53 57 -53 16 0 48 -9 71 -20 36 -18
39 -18 21 -3 -12 10 -30 24 -40 31 -45 30 55 -24 115 -62 36 -24 86 -55 110
-70 29 -19 40 -31 32 -36 -9 -5 1 -17 28 -37 27 -20 52 -52 71 -91 22 -43 48
-74 93 -111 34 -28 63 -47 65 -43 2 8 312 -291 312 -302 0 -3 -13 -6 -29 -6
-35 0 -46 -13 -26 -30 10 -8 13 -21 9 -37 -5 -18 -1 -28 13 -38 21 -15 48
-120 38 -147 -3 -8 -1 -27 5 -42 10 -28 -4 -116 -20 -116 -4 0 -10 -9 -13 -20
-4 -15 21 -44 112 -127 133 -124 131 -121 123 -141 -3 -8 3 -21 13 -28 24 -18
13 -18 -31 1 -20 8 -45 26 -56 40 -14 19 -29 25 -57 25 -42 0 -61 14 -61 45 0
11 -10 27 -22 35 -39 25 -98 49 -98 41 0 -13 69 -71 84 -71 19 0 67 -76 60
-95 -3 -8 -11 -12 -17 -8 -7 4 -19 8 -28 8 -9 1 -54 24 -100 52 -46 28 -129
74 -184 103 -71 37 -109 64 -133 94 -65 83 -213 297 -210 305 2 4 32 2 67 -5
36 -8 66 -12 67 -11 6 5 -118 97 -131 97 -8 0 -79 42 -157 93 -182 118 -236
149 -247 143 -5 -3 -12 -23 -16 -43 -4 -21 -13 -49 -20 -63 -13 -25 -125 -120
-142 -120 -4 0 -48 43 -96 95 -48 52 -146 142 -218 201 -102 83 -129 111 -127
127 2 12 12 23 23 25 11 2 28 11 37 19 16 14 18 14 24 -1 4 -10 18 -16 39 -16
36 0 51 13 57 49 2 19 -7 29 -59 61 -48 28 -103 82 -230 224 -92 103 -186 209
-208 235 -58 70 -122 121 -153 121 -15 0 -56 -7 -92 -15 -36 -8 -229 -51 -430
-95 -201 -45 -417 -94 -480 -110 -63 -16 -257 -61 -430 -99 -173 -39 -376 -85
-450 -102 -74 -17 -164 -37 -200 -44 -36 -8 -123 -28 -195 -46 -126 -32 -136
-33 -345 -33 -179 0 -262 5 -495 32 -154 18 -399 46 -545 63 -354 40 -836 96
-935 109 -44 6 -262 31 -485 56 -510 57 -569 63 -600 65 -60 2 40 19 170 29
292 21 774 44 680 33 -19 -3 -43 -12 -52 -20 -11 -10 -18 -12 -18 -5 0 8 -22
12 -67 11 -56 -1 -62 -3 -33 -9 19 -4 29 -8 22 -9 -10 -1 -10 -6 -1 -22 8 -15
16 -19 32 -14 12 3 28 7 35 7 6 1 12 5 12 9 0 4 17 13 38 20 38 13 45 15 75
17 10 1 16 6 13 11 -3 4 72 11 167 15 95 3 245 9 334 12 l161 7 -26 22 c-44
37 -68 45 -129 46 -32 0 -80 4 -108 9 -49 7 -49 7 25 9 117 2 301 14 296 19
-3 2 7 15 22 28 l27 23 -30 3 c-49 5 1528 13 2105 11 294 0 769 -2 1055 -2z
m-5948 -24 c-6 -20 -27 -19 -27 2 0 14 5 19 15 14 9 -3 14 -10 12 -16z m903 3
c0 -5 -9 -10 -20 -10 -11 0 -20 5 -20 10 0 6 9 10 20 10 11 0 20 -4 20 -10z
m-375 -30 c3 -5 -1 -10 -10 -10 -9 0 -13 5 -10 10 3 6 8 10 10 10 2 0 7 -4 10
-10z m-185 -21 c0 -5 -7 -9 -15 -9 -15 0 -20 12 -9 23 8 8 24 -1 24 -14z
m6867 5 c-3 -3 -12 -4 -19 -1 -8 3 -5 6 6 6 11 1 17 -2 13 -5z m-17 -20 c0 -2
-9 -4 -21 -4 -11 0 -18 4 -14 10 5 8 35 3 35 -6z m-6315 -34 c-3 -5 -13 -10
-21 -10 -8 0 -12 5 -9 10 3 6 13 10 21 10 8 0 12 -4 9 -10z m-378 -12 c-2 -8
-21 -13 -45 -13 -45 0 -57 11 -19 18 46 9 69 7 64 -5z m453 -7 c0 -16 -29 -33
-52 -29 -22 3 -22 4 7 20 34 20 45 22 45 9z m-665 -50 c3 -5 1 -12 -5 -16 -5
-3 -10 1 -10 9 0 18 6 21 15 7z m705 -15 c0 -3 -4 -8 -10 -11 -5 -3 -10 -1
-10 4 0 6 5 11 10 11 6 0 10 -2 10 -4z m-961 -197 c9 -27 9 -30 -4 -19 -8 7
-15 21 -15 31 0 28 7 23 19 -12z m259 -20 c-12 -7 -24 -7 -35 0 -15 9 -12 10
17 10 29 0 32 -1 18 -10z m-115 -6 c-7 -2 -19 -2 -25 0 -7 3 -2 5 12 5 14 0
19 -2 13 -5z m-113 -32 c0 -6 -4 -13 -10 -16 -5 -3 -10 1 -10 9 0 9 5 16 10
16 6 0 10 -4 10 -9z m5330 -30 c57 -7 52 -13 -22 -26 -20 -3 -50 -12 -65 -20
-15 -8 -34 -15 -40 -15 -7 0 -13 -4 -13 -8 0 -9 -133 -61 -210 -82 -25 -6 -59
-19 -77 -27 -28 -13 -42 -13 -125 1 -51 8 -119 18 -150 22 -32 3 -58 9 -58 13
0 7 121 45 290 92 63 17 135 37 160 44 48 14 218 18 310 6z m-5290 -64 c0 -5
-4 -5 -10 -2 -5 3 -10 14 -10 23 0 15 2 15 10 2 5 -8 10 -19 10 -23z m453 26
c4 -3 2 -12 -4 -19 -13 -16 1 -45 37 -73 29 -23 35 -61 14 -86 -12 -15 -25
-12 -64 18 -15 11 -17 17 -7 35 9 17 8 29 -4 58 -19 45 2 94 28 67z m7984
-114 c113 -86 297 -241 310 -262 4 -6 -13 5 -37 26 -109 93 -294 241 -354 283
-36 25 -66 48 -66 50 0 10 43 -19 147 -97z m-8397 21 c0 -5 -2 -10 -4 -10 -3
0 -8 5 -11 10 -3 6 -1 10 4 10 6 0 11 -4 11 -10z m403 -147 c92 -140 111 -172
104 -179 -2 -3 -30 -1 -62 2 -40 5 -71 16 -104 39 l-46 32 4 109 c3 100 6 124
16 124 2 0 41 -57 88 -127z m-278 -12 c15 -38 -24 -20 -51 23 l-21 33 33 -21
c18 -11 36 -27 39 -35z m5087 19 c117 -22 242 -47 278 -55 83 -20 397 -84 860
-177 l364 -73 -669 -5 c-440 -3 -669 -8 -667 -15 2 -5 -4 -11 -12 -13 -9 -2
-16 3 -16 12 0 14 -17 16 -117 15 -83 -1 -106 -4 -78 -9 31 -6 21 -7 -45 -8
-47 0 -97 -3 -111 -7 -15 -3 -46 -1 -70 5 -24 7 -94 12 -154 11 -175 -1 -196
14 -30 23 174 8 182 13 161 96 -8 30 -11 59 -8 65 3 5 7 33 7 62 1 34 8 59 18
71 9 10 17 24 17 30 0 19 47 14 272 -28z m-4984 -108 c2 -12 1 -22 -1 -22 -12
0 -67 56 -67 68 0 23 65 -21 68 -46z m3452 54 c0 -6 -154 -93 -195 -110 -39
-17 -129 -20 -220 -8 l-50 7 120 39 c66 21 143 47 170 57 42 15 175 27 175 15z
m5193 -249 c103 -110 167 -184 167 -194 0 -3 -24 22 -52 54 -29 32 -84 89
-122 128 -108 109 -143 149 -121 137 11 -5 69 -62 128 -125z m-8498 111 c26
-12 32 -23 15 -33 -13 -8 -72 24 -65 35 8 13 19 13 50 -2z m8435 -91 c0 -6 -9
-2 -20 8 -11 10 -20 23 -20 28 0 6 9 2 20 -8 11 -10 20 -23 20 -28z m-8350 3
c22 -11 40 -23 40 -25 0 -5 -79 32 -89 41 -11 10 14 2 49 -16z m159 -19 c24
-5 53 -19 65 -31 l21 -22 -40 6 c-54 9 -134 35 -140 47 -7 11 35 11 94 0z
m3521 -11 c0 -6 -31 -10 -72 -10 -40 1 -320 0 -623 -1 -302 -1 -730 -1 -950
-1 -220 0 -440 -1 -490 -2 -210 -5 -834 -6 -1008 -1 -126 3 -186 2 -182 -5 3
-5 -3 -10 -14 -10 -42 0 -14 25 34 31 92 11 3305 10 3305 -1z m89 6 c-12 -10
-79 -16 -79 -6 0 5 19 10 42 10 23 0 39 -2 37 -4z m269 -3 c-21 -2 -57 -2 -80
0 -24 2 -7 4 37 4 44 0 63 -2 43 -4z m2426 -17 c-6 -15 23 -26 69 -26 24 0 27
-4 27 -35 0 -24 -5 -35 -15 -35 -8 0 -15 -4 -15 -10 0 -5 -16 -10 -35 -10 -23
0 -35 5 -34 13 3 28 -2 37 -25 37 -33 0 -42 16 -17 31 19 12 18 13 -3 30 -21
18 -21 18 16 19 28 0 36 -4 32 -14z m-974 -39 c0 -6 -9 -2 -20 8 -11 10 -20
23 -20 28 0 6 9 2 20 -8 11 -10 20 -23 20 -28z m-2620 -7 c8 -5 11 -12 8 -16
-10 -9 -38 3 -38 16 0 12 10 13 30 0z m730 -10 c0 -5 -7 -10 -15 -10 -8 0 -15
5 -15 10 0 6 7 10 15 10 8 0 15 -4 15 -10z m685 -10 c50 -11 117 -25 150 -31
51 -10 57 -13 39 -21 -15 -7 -43 -5 -92 6 -39 9 -83 16 -98 16 -45 0 -154 21
-154 30 0 9 22 17 50 19 8 1 56 -8 105 -19z m810 -10 c3 -6 -5 -10 -19 -10
-14 0 -28 5 -31 10 -3 6 5 10 19 10 14 0 28 -4 31 -10z m-4070 -10 c-3 -5 -16
-10 -28 -9 -20 1 -20 2 3 9 14 4 26 8 28 9 2 1 0 -3 -3 -9z m2095 -24 c0 -3
-4 -8 -10 -11 -5 -3 -10 -1 -10 4 0 6 5 11 10 11 6 0 10 -2 10 -4z m140 -6 c0
-5 -9 -10 -21 -10 -11 0 -17 5 -14 10 3 6 13 10 21 10 8 0 14 -4 14 -10z
m-1687 -7 c-7 -2 -21 -2 -30 0 -10 3 -4 5 12 5 17 0 24 -2 18 -5z m1400 0 c-7
-2 -19 -2 -25 0 -7 3 -2 5 12 5 14 0 19 -2 13 -5z m3364 1 c-3 -3 -12 -4 -19
-1 -8 3 -5 6 6 6 11 1 17 -2 13 -5z m2241 -82 c6 -18 -15 -14 -22 4 -4 10 -1
14 6 12 6 -2 14 -10 16 -16z m-1598 -12 c13 -9 13 -10 0 -10 -8 0 -22 5 -30
10 -13 9 -13 10 0 10 8 0 22 -5 30 -10z m1670 -40 c17 -22 29 -40 27 -40 -3 0
-20 18 -37 40 -17 22 -29 40 -27 40 3 0 20 -18 37 -40z m-1001 -58 c24 -17 30
-34 14 -39 -13 -5 -75 39 -81 56 -6 17 32 7 67 -17z m1031 -13 c0 -6 -4 -7
-10 -4 -5 3 -10 11 -10 16 0 6 5 7 10 4 6 -3 10 -11 10 -16z m-1150 -99 c0 -5
-4 -10 -10 -10 -5 0 -10 5 -10 10 0 6 5 10 10 10 6 0 10 -4 10 -10z m120 -60
c0 -5 -4 -10 -10 -10 -5 0 -10 5 -10 10 0 6 5 10 10 10 6 0 10 -4 10 -10z
m1107 -12 c-3 -8 -6 -5 -6 6 -1 11 2 17 5 13 3 -3 4 -12 1 -19z m63 2 c6 -11
8 -20 6 -20 -3 0 -10 9 -16 20 -6 11 -8 20 -6 20 3 0 10 -9 16 -20z m-1160
-133 c380 -254 754 -638 991 -1018 97 -156 290 -552 275 -566 -2 -2 -20 36
-41 84 -56 131 -177 366 -239 465 -85 137 -242 342 -357 468 -216 236 -409
402 -671 577 -155 103 -204 142 -110 87 26 -15 94 -59 152 -97z m1283 -81 c42
-77 77 -145 77 -151 0 -5 -34 53 -76 130 -42 77 -85 156 -95 175 -16 28 -17
30 -2 11 10 -13 53 -87 96 -165z m-1093 154 c8 -5 11 -12 7 -16 -4 -4 -15 0
-24 9 -18 18 -8 23 17 7z m-370 -15 c-7 -9 -15 -13 -17 -11 -7 7 7 26 19 26 6
0 6 -6 -2 -15z m1245 -89 c75 -110 121 -174 176 -245 l57 -74 -41 -49 c-52
-62 -124 -121 -137 -113 -12 7 -140 256 -151 293 -4 12 -17 42 -29 67 -22 46
-22 62 3 149 13 45 43 62 70 38 9 -8 33 -38 52 -66z m-910 16 c-3 -3 -16 5
-28 17 l-22 23 28 -17 c15 -10 25 -20 22 -23z m140 8 c10 -11 14 -20 8 -20 -5
0 -18 9 -28 20 -10 11 -14 20 -8 20 5 0 18 -9 28 -20z m155 -45 c30 -23 84
-61 119 -85 35 -23 82 -59 104 -79 23 -20 37 -30 33 -23 -16 26 13 10 36 -20
36 -49 44 -63 28 -53 -8 5 -1 -8 14 -28 16 -20 32 -35 36 -32 12 8 71 -64 93
-114 24 -56 86 -148 120 -180 l25 -23 7 46 c7 45 18 58 28 34 3 -7 6 8 6 35 1
54 14 60 36 17 29 -57 136 -343 130 -349 -4 -3 -26 15 -51 41 -39 41 -44 44
-44 24 0 -12 11 -50 25 -84 40 -99 29 -119 -16 -27 -37 76 -49 123 -30 111 5
-4 7 3 4 14 -3 11 -10 20 -16 20 -6 0 -19 7 -29 17 -10 9 -28 21 -41 28 -12 6
-21 17 -19 24 5 22 -26 61 -43 55 -10 -4 -18 3 -25 22 -20 52 -212 294 -233
294 -6 0 -93 83 -193 185 -101 102 -178 182 -171 178 7 -3 37 -25 67 -48z
m800 -19 c0 -5 -7 -3 -15 4 -8 7 -12 17 -9 22 7 10 24 -9 24 -26z m-895 4 c3
-5 2 -10 -4 -10 -5 0 -13 5 -16 10 -3 6 -2 10 4 10 5 0 13 -4 16 -10z m-54
-57 c13 -16 12 -17 -3 -4 -10 7 -18 15 -18 17 0 8 8 3 21 -13z m549 -38 c0 -7
3 -21 7 -31 5 -15 1 -16 -43 -9 -68 10 -149 53 -132 71 3 2 29 -3 59 -12 110
-31 106 -31 86 -1 -9 14 -17 30 -17 34 1 13 40 -38 40 -52z m415 -5 c4 -6 14
-9 23 -8 9 2 18 -5 20 -15 3 -15 -1 -17 -25 -11 -38 9 -43 13 -43 30 0 16 16
19 25 4z m-791 -26 c4 -11 1 -14 -11 -12 -9 2 -18 9 -21 16 -6 18 25 15 32 -4z
m886 -106 c0 -10 -4 -18 -9 -18 -11 0 -21 25 -21 53 1 22 1 22 15 3 8 -11 15
-28 15 -38z m18 27 c-3 -3 -9 2 -12 12 -6 14 -5 15 5 6 7 -7 10 -15 7 -18z
m22 -50 c0 -5 -5 -3 -10 5 -5 8 -10 20 -10 25 0 6 5 3 10 -5 5 -8 10 -19 10
-25z m-810 15 c0 -5 -2 -10 -4 -10 -3 0 -8 5 -11 10 -3 6 -1 10 4 10 6 0 11
-4 11 -10z m715 -10 c3 -5 1 -10 -4 -10 -6 0 -11 5 -11 10 0 6 2 10 4 10 3 0
8 -4 11 -10z m-726 -74 c-3 -3 -11 5 -18 17 -13 21 -12 21 5 5 10 -10 16 -20
13 -22z m845 -16 c1 -35 -1 -38 -11 -23 -16 21 -17 47 -2 37 8 -4 9 1 4 17 -4
13 -4 21 0 16 5 -4 9 -25 9 -47z m-724 5 c7 -9 8 -15 2 -15 -5 0 -12 7 -16 15
-3 8 -4 15 -2 15 2 0 9 -7 16 -15z m111 -112 c13 -16 12 -17 -3 -4 -17 13 -22
21 -14 21 2 0 10 -8 17 -17z m749 -287 c16 -62 12 -88 -8 -48 -10 18 -23 126
-14 118 2 -3 12 -34 22 -70z m-409 -128 c8 -15 8 -18 0 -14 -6 4 -16 16 -22
28 -8 15 -8 18 0 14 6 -4 16 -16 22 -28z m365 -46 c4 -36 3 -52 -5 -52 -6 0
-11 -7 -11 -15 0 -8 -5 -15 -11 -15 -8 0 -10 13 -5 38 3 20 6 57 6 82 1 58 16
35 26 -38z m-5291 -72 c-9 -16 -22 -30 -31 -30 -9 0 -12 -5 -8 -12 4 -6 3 -8
-3 -5 -6 4 -18 -2 -28 -13 -19 -21 -7 -28 13 -8 7 7 12 8 11 3 0 -6 -36 -41
-80 -80 -140 -123 -167 -141 -64 -43 55 53 100 101 100 107 0 13 85 108 98
110 4 0 1 -12 -8 -29z m4274 -90 c131 -533 92 -1044 -121 -1560 -139 -338
-371 -639 -663 -861 -126 -96 -305 -204 -415 -251 -144 -61 -142 -52 5 20 300
147 504 303 723 552 249 284 432 700 509 1157 24 148 24 498 -1 668 -14 98
-47 266 -72 370 -4 16 -3 17 4 5 6 -8 19 -53 31 -100z m1197 -160 c8 -63 14
-127 12 -142 -3 -15 -1 -29 3 -30 14 -5 31 -414 23 -538 -9 -147 -25 -192 -19
-53 2 60 0 105 -5 108 -14 8 -12 61 2 84 18 29 -2 389 -22 401 -12 8 -12 10
-1 10 11 0 12 11 6 53 -4 28 -13 97 -20 152 -8 55 -16 116 -19 135 -4 23 -1
18 9 -15 8 -27 22 -102 31 -165z m-235 -89 c40 -76 81 -149 91 -162 19 -24 19
-24 2 16 -25 61 -74 208 -71 211 2 2 20 -17 41 -41 20 -25 41 -43 46 -40 25
15 29 -298 5 -410 -10 -44 -20 -106 -24 -137 -4 -31 -9 -60 -13 -63 -11 -11
-20 36 -13 71 5 29 3 34 -13 34 -24 0 -32 19 -38 83 -3 27 -9 59 -14 73 -6 14
-10 55 -10 90 0 36 -4 63 -9 60 -5 -3 -12 11 -16 32 -4 20 -17 62 -30 92 -21
49 -31 138 -26 223 2 33 19 9 92 -132z m13 93 c3 -8 2 -12 -4 -9 -6 3 -10 10
-10 16 0 14 7 11 14 -7z m-114 -74 c0 -13 -1 -13 -10 0 -5 8 -10 22 -10 30 0
13 1 13 10 0 5 -8 10 -22 10 -30z m315 -27 l-8 -48 -10 32 c-12 38 -1 91 15
75 7 -7 8 -28 3 -59z m-5865 -66 c0 -2 -10 -12 -22 -23 l-23 -19 19 23 c18 21
26 27 26 19z m5890 -125 c0 -15 -2 -15 -10 -2 -13 20 -13 33 0 25 6 -3 10 -14
10 -23z m-5772 -29 c-10 -2 -28 -2 -40 0 -13 2 -5 4 17 4 22 1 32 -1 23 -4z
m50 -70 c-43 -2 -113 -2 -155 0 -43 1 -8 3 77 3 85 0 120 -2 78 -3z m-138 -23
c0 -5 -10 -10 -22 -9 -22 0 -22 1 -3 9 11 5 21 9 23 9 1 1 2 -3 2 -9z m158 -7
c-16 -2 -40 -2 -55 0 -16 2 -3 4 27 4 30 0 43 -2 28 -4z m15 -40 c-7 -2 -19
-2 -25 0 -7 3 -2 5 12 5 14 0 19 -2 13 -5z m17 -27 c8 -2 -31 -4 -88 -5 -72
-1 -101 -4 -96 -12 3 -6 18 -9 33 -6 14 3 35 1 46 -3 15 -7 9 -9 -25 -11 -72
-3 -137 4 -185 20 -25 9 -19 10 37 8 43 -2 69 1 72 8 4 10 161 11 206 1z
m5366 -161 c13 -44 23 -89 23 -100 0 -11 -11 18 -24 65 -13 47 -28 98 -34 113
-6 16 -11 34 -10 40 1 18 18 -27 45 -118z m-5468 106 c20 -12 -119 -24 -176
-14 -43 7 -39 8 53 14 55 3 102 6 105 7 3 1 11 -2 18 -7z m50 -26 c-8 -8 -98
-9 -105 -1 -4 3 20 6 52 6 32 0 56 -2 53 -5z m-148 -25 c0 -6 37 -11 88 -12
l87 -2 -75 -6 -75 -6 85 -3 c96 -4 91 -8 -25 -20 l-80 -8 109 -2 c60 0 107 -4
103 -7 -3 -3 -61 -8 -129 -10 -68 -3 -129 -7 -136 -10 -8 -2 -20 2 -27 10 -9
9 -30 12 -62 10 -47 -4 -48 -3 -13 7 76 23 78 26 40 37 l-35 10 40 2 c32 1 36
3 20 10 -15 6 -6 9 33 9 28 1 52 -3 52 -9z m55 -110 c-53 -12 -122 -12 -129
-1 -3 4 34 9 82 9 72 0 80 -1 47 -8z m5570 0 c3 -5 1 -10 -4 -10 -6 0 -11 5
-11 10 0 6 2 10 4 10 3 0 8 -4 11 -10z m-5475 -31 c-25 -4 -82 -8 -127 -8 -97
-1 -115 -21 -20 -22 41 0 55 -3 42 -8 -11 -5 -39 -7 -62 -5 -24 1 -45 -2 -48
-7 -4 -5 24 -9 64 -9 41 0 71 -4 71 -10 0 -5 -5 -10 -11 -10 -8 0 -8 -5 1 -15
11 -13 4 -15 -51 -15 -69 0 -72 16 -4 23 22 2 -8 3 -67 2 -71 -1 -114 3 -130
11 l-23 13 28 1 c37 0 31 23 -9 32 -19 4 -11 5 24 3 29 -1 55 2 58 6 3 5 0 9
-6 9 -6 0 -8 5 -5 11 5 6 50 9 126 8 65 -2 121 -1 124 2 3 3 20 3 37 0 32 -5
32 -5 -12 -12z m-822 -9 c-14 -22 -24 -19 -15 5 4 8 11 15 17 15 6 0 6 -7 -2
-20z m6552 -54 c0 -3 -4 -8 -10 -11 -5 -3 -10 -1 -10 4 0 6 5 11 10 11 6 0 10
-2 10 -4z m-5753 -12 c-3 -3 -12 -4 -19 -1 -8 3 -5 6 6 6 11 1 17 -2 13 -5z
m-148 -51 c47 0 104 -2 126 -3 l40 -2 -35 -9 c-19 -4 -42 -6 -52 -3 -9 3 -19
0 -23 -6 -6 -10 44 -15 110 -10 17 1 27 -1 24 -4 -4 -4 -82 -9 -175 -12 -118
-3 -164 -2 -154 5 8 6 51 11 95 12 l80 1 -55 10 c-30 5 -82 9 -115 9 -41 0
-55 3 -45 9 8 5 25 10 37 10 17 0 21 4 16 18 -6 15 -3 14 16 -3 19 -16 39 -20
110 -22z m5688 15 c-3 -8 -6 -5 -6 6 -1 11 2 17 5 13 3 -3 4 -12 1 -19z
m-5744 -95 c-7 -2 -19 -2 -25 0 -7 3 -2 5 12 5 14 0 19 -2 13 -5z m54 -4 c-14
-8 -22 -8 -30 0 -8 8 -3 11 19 11 25 -1 27 -2 11 -11z m-130 -25 c-3 -3 -12
-4 -19 -1 -8 3 -5 6 6 6 11 1 17 -2 13 -5z m263 -3 c35 -7 13 -9 -103 -10 -82
-1 -146 2 -144 7 7 11 195 13 247 3z m-243 -37 c-3 -3 -12 -4 -19 -1 -8 3 -5
6 6 6 11 1 17 -2 13 -5z m56 -1 c-7 -2 -19 -2 -25 0 -7 3 -2 5 12 5 14 0 19
-2 13 -5z m64 1 c-3 -3 -12 -4 -19 -1 -8 3 -5 6 6 6 11 1 17 -2 13 -5z m106
-1 c-13 -2 -35 -2 -50 0 -16 2 -5 4 22 4 28 0 40 -2 28 -4z m-46 -29 c-3 -3
-12 -4 -19 -1 -8 3 -5 6 6 6 11 1 17 -2 13 -5z m-72 -34 c-3 -5 -14 -10 -23
-9 -14 0 -13 2 3 9 27 11 27 11 20 0z m-60 -10 c-3 -5 -18 -10 -33 -9 -24 0
-25 1 -7 9 28 12 47 12 40 0z m118 -57 c-7 -2 -19 -2 -25 0 -7 3 -2 5 12 5 14
0 19 -2 13 -5z m-159 -72 c8 -12 -20 -22 -39 -15 -19 8 -9 24 15 24 10 0 21
-4 24 -9z m-142 -13 c-9 -9 -15 -9 -24 0 -9 9 -7 12 12 12 19 0 21 -3 12 -12z
m227 1 c29 -10 44 -39 21 -39 -13 0 -90 39 -90 45 0 9 36 5 69 -6z m5829 -46
c-1 -62 -14 -101 -29 -86 -10 10 10 143 22 143 5 0 8 -26 7 -57z m-6094 38 c7
-10 -17 -21 -47 -21 -20 0 -20 -1 -5 -16 14 -15 18 -15 42 1 14 10 26 13 26 8
0 -5 -11 -16 -25 -23 -14 -7 -25 -18 -25 -24 0 -6 -7 0 -16 13 -14 20 -22 22
-55 17 -30 -5 -39 -3 -39 8 0 16 17 23 74 30 21 3 41 7 44 10 8 9 20 7 26 -3z
m87 -11 c-25 -21 -41 -26 -41 -11 0 5 12 14 28 19 39 15 40 14 13 -8z m133
-15 c20 -4 26 -9 18 -17 -12 -12 -85 9 -77 22 3 5 11 7 18 5 7 -2 25 -6 41
-10z m154 -32 c50 -49 96 -146 95 -198 0 -22 -12 -65 -27 -95 -28 -58 -28 -56
0 28 16 46 16 59 5 100 -7 26 -19 54 -27 63 -8 8 -14 24 -14 35 0 10 -21 38
-47 61 -27 23 -42 42 -36 43 7 0 30 -17 51 -37z m-9 -50 c11 -23 6 -21 -36 17
-26 24 -50 45 -53 48 -3 2 13 -6 36 -17 23 -12 46 -33 53 -48z m-453 42 c11
-27 -2 -37 -14 -11 -7 16 -8 26 -1 26 5 0 12 -7 15 -15z m314 1 c0 -3 -4 -8
-10 -11 -5 -3 -10 -1 -10 4 0 6 5 11 10 11 6 0 10 -2 10 -4z m-307 -128 c-8
-45 -19 -55 -27 -23 -4 16 -2 33 5 41 19 23 29 16 22 -18z m6177 -22 c0 -3 -4
-8 -10 -11 -5 -3 -10 -1 -10 4 0 6 5 11 10 11 6 0 10 -2 10 -4z m-6145 -101
c18 -29 18 -29 0 -15 -14 11 -19 12 -22 3 -5 -15 -33 -18 -33 -4 0 5 7 11 15
15 8 3 15 13 15 22 0 10 1 15 3 13 2 -2 11 -17 22 -34z m-33 -106 c-11 -16 -9
-18 10 -16 20 2 24 -4 32 -45 11 -54 -2 -78 -40 -78 -27 0 -34 34 -9 44 8 3
15 11 15 18 0 9 -3 9 -12 0 -23 -23 -28 -11 -24 61 2 39 4 74 5 77 1 2 8 -6
18 -19 13 -19 14 -28 5 -42z m48 9 c0 -10 -4 -18 -10 -18 -5 0 -10 15 -10 33
0 24 3 28 10 17 5 -8 10 -23 10 -32z m440 35 c0 -5 -18 -28 -41 -53 -42 -47
-42 -41 1 23 23 34 40 47 40 30z m10 -45 c0 -7 -12 -26 -26 -43 l-25 -30 23
42 c25 46 28 50 28 31z m-115 -67 c-3 -6 -11 -11 -17 -11 -6 0 -6 6 2 15 14
17 26 13 15 -4z m-95 -41 c0 -5 -5 -10 -11 -10 -5 0 -7 5 -4 10 3 6 8 10 11
10 2 0 4 -4 4 -10z m-270 -79 c0 -8 -39 -47 -41 -40 0 2 -2 13 -5 24 -6 34 3
47 26 35 11 -6 20 -14 20 -19z m30 1 c0 -13 -31 -52 -41 -52 -6 0 -2 14 8 30
16 28 33 39 33 22z m-22 -107 c6 0 12 -3 12 -7 0 -5 0 -24 0 -43 0 -19 -4 -35
-10 -35 -5 0 -10 14 -10 31 0 18 -4 28 -10 24 -18 -11 -38 20 -33 49 l6 27 16
-23 c9 -13 22 -23 29 -23z m52 10 c0 -8 -4 -15 -10 -15 -5 0 -10 7 -10 15 0 8
5 15 10 15 6 0 10 -7 10 -15z m-81 -90 c0 -5 -12 -9 -26 -8 -30 2 -37 8 -29
21 8 13 56 1 55 -13z m81 5 c12 -8 11 -10 -7 -10 -13 0 -23 5 -23 10 0 13 11
13 30 0z m4537 -386 c-3 -3 -12 -4 -19 -1 -8 3 -5 6 6 6 11 1 17 -2 13 -5z
m-17 -188 c0 -3 -4 -8 -10 -11 -5 -3 -10 -1 -10 4 0 6 5 11 10 11 6 0 10 -2
10 -4z m-1060 -30 c-20 -8 -51 -16 -70 -19 -23 -4 -17 0 20 13 61 21 105 26
50 6z m-113 -32 c-3 -3 -12 -4 -19 -1 -8 3 -5 6 6 6 11 1 17 -2 13 -5z m-2262
-17 c33 -2 -45 -4 -172 -5 -128 -1 -233 1 -233 6 0 6 260 6 405 -1z m-381 -39
c-6 -9 -39 6 -49 21 -3 5 8 4 24 -2 17 -6 28 -15 25 -19z m2484 25 c-10 -2
-26 -2 -35 0 -10 3 -2 5 17 5 19 0 27 -2 18 -5z m-59 -7 c-2 -2 -292 -5 -644
-8 -352 -3 -620 -2 -595 2 45 7 1247 13 1239 6z m-1861 -13 c-87 -2 -229 -2
-315 0 -87 1 -16 3 157 3 173 0 244 -2 158 -3z"/>
<path d="M9245 11060 c11 -18 84 -50 112 -49 24 1 19 5 -32 29 -63 30 -91 37
-80 20z"/>
<path d="M3148 11013 c6 -2 18 -2 25 0 6 3 1 5 -13 5 -14 0 -19 -2 -12 -5z"/>
<path d="M9573 10893 c13 -15 15 -22 6 -25 -15 -5 37 -39 65 -42 11 -2 37 -10
56 -20 l35 -17 -29 23 c-53 42 -152 102 -133 81z"/>
<path d="M8867 10587 c-3 -8 -2 -20 3 -26 11 -19 52 -4 48 17 -4 21 -44 28
-51 9z"/>
<path d="M9703 10246 c3 -19 12 -48 19 -62 16 -34 106 -97 126 -89 8 3 20 2
26 -2 7 -5 5 -1 -4 7 -9 9 -15 21 -13 27 4 12 -108 127 -141 145 -17 9 -19 7
-13 -26z"/>
<path d="M10120 9756 c0 -2 8 -10 18 -17 15 -13 16 -12 3 4 -13 16 -21 21 -21
13z"/>
<path d="M5101 6564 c0 -11 3 -14 6 -6 3 7 2 16 -1 19 -3 4 -6 -2 -5 -13z"/>
<path d="M7294 9811 c-21 -16 -131 -115 -244 -221 -113 -106 -322 -301 -465
-434 -143 -132 -274 -255 -291 -272 -67 -69 -62 39 -65 -1444 -4 -1472 -7
-1378 55 -1400 18 -6 230 -10 573 -10 607 0 601 -1 628 65 13 30 15 268 13
1842 -3 2024 5 1835 -80 1879 -61 31 -77 30 -124 -5z m61 -33 c-10 -47 -119
-466 -167 -638 -66 -242 -66 -241 -71 -489 -3 -128 -9 -236 -13 -240 -5 -3
-10 -15 -12 -26 -2 -16 -1 -17 7 -5 15 22 24 5 11 -21 -14 -25 -20 -349 -7
-349 4 0 0 -11 -8 -24 -13 -19 -14 -32 -6 -63 13 -51 13 -220 0 -246 -15 -27
5 -112 43 -190 16 -33 25 -57 21 -54 -5 3 -18 24 -29 46 -18 38 -40 59 -28 26
4 -8 2 -15 -3 -15 -5 0 -15 -16 -20 -35 -9 -29 -8 -38 4 -50 11 -11 13 -26 8
-54 -4 -24 -2 -41 4 -46 20 -11 49 -79 71 -161 11 -43 27 -101 34 -129 8 -27
30 -106 50 -175 19 -69 44 -152 55 -184 12 -33 20 -73 20 -90 -1 -21 -3 -25
-6 -11 -8 31 -72 247 -83 275 -5 14 -25 86 -46 160 -20 74 -46 160 -59 190
-12 30 -25 64 -29 75 -10 29 -23 4 -37 -76 -10 -58 -10 -69 6 -92 17 -27 17
-27 -6 -25 -21 3 -25 -2 -29 -37 l-5 -40 -23 53 c-13 29 -32 83 -43 120 -25
81 -85 236 -102 263 -6 10 -18 19 -25 19 -9 0 -11 9 -7 33 5 25 -7 65 -54 181
l-59 150 125 380 c150 458 150 461 207 656 77 269 98 353 92 373 -8 31 4 76
19 71 9 -4 24 31 49 113 112 360 130 413 144 413 10 0 12 -8 7 -32z m41 -16
c-10 -10 -29 15 -21 28 6 9 10 8 17 -4 6 -10 7 -20 4 -24z m47 14 c3 3 14 -7
24 -22 19 -30 19 -21 12 -2454 0 -179 -4 -316 -8 -305 -6 15 -10 5 -15 -39 -5
-38 -4 -62 3 -69 8 -8 11 3 12 39 l2 49 7 -55 c10 -73 0 -493 -12 -501 -11 -7
-13 -56 -4 -86 9 -27 -9 -39 -23 -16 -8 14 -11 6 -11 -37 -2 -83 -18 -32 -19
58 -1 55 -4 72 -15 72 -14 0 -32 37 -23 46 2 3 12 -2 21 -11 15 -15 16 -10 16
59 0 44 -4 76 -10 76 -5 0 -10 -17 -10 -37 0 -43 -16 -34 -23 12 -2 17 -3 10
-2 -15 3 -42 2 -43 -11 -20 -7 14 -13 35 -14 47 0 13 -7 40 -16 62 -15 37 -14
42 1 69 20 33 51 55 65 47 13 -8 12 -56 -1 -75 -8 -11 -12 -12 -16 -2 -8 21
-23 2 -23 -30 0 -26 2 -29 15 -18 8 7 22 10 30 6 13 -5 15 11 15 107 0 109 -1
111 -18 89 -17 -22 -18 -22 -60 85 -47 119 -48 126 -33 131 6 2 11 -2 11 -9 0
-19 63 -179 70 -179 4 0 5 12 3 28 -4 26 -4 26 11 8 15 -18 16 4 16 252 0 235
-2 272 -15 272 -8 0 -15 7 -15 16 0 10 6 14 15 10 13 -4 15 10 15 94 0 75 -3
100 -13 100 -14 0 -47 35 -47 50 0 6 14 13 30 17 l30 6 0 329 c0 308 -1 330
-17 317 -15 -13 -15 -12 1 12 13 22 16 46 14 125 l-3 99 -22 -46 c-13 -25 -23
-58 -23 -73 0 -15 -4 -25 -8 -22 -5 3 -5 31 -2 63 4 32 5 64 3 70 -6 15 34 83
48 83 5 0 9 35 8 78 0 63 -2 73 -11 55 -6 -13 -15 -23 -20 -23 -12 0 -10 6 13
60 11 27 19 57 17 67 -2 10 -14 -11 -28 -51 -25 -68 -50 -98 -50 -57 0 11 4
23 10 26 5 3 9 23 8 43 -1 50 26 118 46 114 14 -2 16 12 16 99 0 89 -2 100
-15 89 -20 -17 -19 -1 1 21 12 13 15 28 10 54 -4 19 -11 35 -15 35 -5 0 -11
14 -15 30 -20 100 -21 93 3 80 17 -9 20 -14 11 -25 -9 -10 -8 -21 4 -42 14
-27 15 -23 16 79 0 76 -4 108 -12 111 -10 4 -10 7 0 15 10 6 13 46 14 147 0
112 3 136 13 122 6 -9 15 -14 18 -11z m-241 -83 c-22 -27 -41 -55 -43 -65 -3
-13 -6 -14 -17 -2 -10 11 -3 22 40 64 29 27 55 50 56 50 2 0 -14 -21 -36 -47z
m203 7 c3 -5 1 -10 -4 -10 -6 0 -11 5 -11 10 0 6 2 10 4 10 3 0 8 -4 11 -10z
m-125 -4 c0 -3 -4 -8 -10 -11 -5 -3 -10 -1 -10 4 0 6 5 11 10 11 6 0 10 -2 10
-4z m-199 -109 c-17 -19 -31 -40 -29 -46 4 -16 -28 -38 -38 -28 -7 7 83 107
95 107 3 0 -10 -15 -28 -33z m159 -17 c0 -5 -5 -10 -11 -10 -5 0 -7 5 -4 10 3
6 8 10 11 10 2 0 4 -4 4 -10z m-282 -102 c-12 -22 -14 -28 -17 -55 0 -7 -5
-13 -11 -13 -5 0 -7 8 -3 18 3 10 -9 3 -30 -17 -20 -19 -39 -32 -42 -29 -5 4
104 117 113 118 1 0 -3 -10 -10 -22z m120 -115 c-21 -20 -41 -33 -45 -29 -8 8
54 66 71 66 6 0 -6 -17 -26 -37z m-274 -35 c-49 -53 -58 -62 -115 -107 -36
-29 -23 -13 40 48 91 89 135 123 75 59z m560 -169 c-29 -83 -40 -102 -29 -49
8 39 46 133 51 127 2 -2 -8 -37 -22 -78z m-749 -8 c-3 -6 -11 -11 -17 -11 -6
0 -6 6 2 15 14 17 26 13 15 -4z m-115 -106 c-41 -42 -77 -70 -79 -64 -2 6 7
17 19 26 12 8 45 37 73 64 79 74 71 59 -13 -26z m802 53 c-7 -7 -12 -8 -12 -2
0 14 12 26 19 19 2 -3 -1 -11 -7 -17z m-72 -22 c0 -3 -4 -8 -10 -11 -5 -3 -10
-1 -10 4 0 6 5 11 10 11 6 0 10 -2 10 -4z m-922 -215 c-7 -12 -16 -21 -20 -21
-16 0 -7 -49 18 -103 l25 -56 30 34 c25 29 28 37 19 55 -10 18 -6 22 35 40 53
23 55 23 55 11 0 -5 -9 -11 -21 -14 -30 -8 -21 -48 14 -65 20 -10 28 -20 26
-35 -1 -12 1 -48 5 -79 6 -41 3 -80 -9 -140 -10 -46 -17 -94 -16 -108 1 -21
42 -141 82 -238 5 -13 9 -28 9 -35 -1 -20 -29 24 -79 123 -27 52 -71 136 -98
185 -124 221 -136 252 -131 330 3 47 11 73 32 105 27 41 50 52 24 11z m1027
-167 c-3 -25 -10 -42 -16 -39 -13 8 -11 58 3 92 9 23 12 25 16 9 2 -10 1 -38
-3 -62z m-110 -82 c-15 -16 -16 -15 -4 12 7 15 15 23 17 16 3 -7 -3 -19 -13
-28z m-953 -167 c-2 -73 2 -122 9 -137 7 -13 16 -30 20 -38 35 -64 41 -82 31
-92 -14 -14 -71 29 -77 59 -3 13 -7 34 -10 47 -3 14 0 28 6 32 7 4 10 33 9 73
-4 103 -1 185 7 177 4 -3 6 -58 5 -121z m1052 22 c-3 -9 -10 -17 -15 -17 -5 0
-9 -9 -9 -19 0 -21 -17 -37 -28 -27 -3 4 -1 16 6 26 7 11 12 26 12 33 0 19 22
39 32 29 5 -5 6 -16 2 -25z m-94 -86 c0 -6 -4 -13 -10 -16 -5 -3 -10 1 -10 9
0 9 5 16 10 16 6 0 10 -4 10 -9z m-22 -73 c-2 -6 -10 -14 -16 -16 -7 -2 -10 2
-6 12 7 18 28 22 22 4z m112 -52 c0 -8 -4 -18 -10 -21 -5 -3 -10 3 -10 14 0
12 5 21 10 21 6 0 10 -6 10 -14z m75 -32 c0 -10 -5 -18 -11 -17 -6 1 -10 -13
-10 -30 0 -18 -2 -50 -6 -72 -4 -22 -4 -32 -2 -22 7 21 20 22 28 2 3 -9 -1
-18 -9 -21 -10 -4 -13 -14 -9 -30 9 -34 -14 -31 -27 4 -6 15 -17 40 -25 56
-19 39 -18 43 17 104 30 52 54 64 54 26z m-725 -60 c0 -47 -4 -73 -10 -69 -14
9 -8 145 6 145 2 0 4 -34 4 -76z m530 -44 c-6 -12 -14 -19 -17 -17 -2 3 1 15
7 27 6 12 14 19 17 17 2 -3 -1 -15 -7 -27z m-840 -9 c0 -22 -16 -36 -24 -22
-8 12 3 41 15 41 5 0 9 -9 9 -19z m-81 -253 c1 -117 2 -238 2 -268 1 -30 -2
-128 -6 -218 -7 -147 -6 -165 10 -182 15 -17 16 -22 4 -36 -12 -15 -19 -107
-19 -284 0 -14 -4 -20 -9 -15 -12 13 -22 335 -10 335 12 0 10 348 -3 392 -8
28 -8 41 1 52 10 12 12 68 11 218 -3 227 -3 218 9 218 5 0 10 -93 10 -212z
m938 60 c-3 -8 -6 -5 -6 6 -1 11 2 17 5 13 3 -3 4 -12 1 -19z m-41 -115 c-11
-11 -19 6 -11 24 8 17 8 17 12 0 3 -10 2 -21 -1 -24z m224 33 c0 -3 -4 -8 -10
-11 -5 -3 -10 -1 -10 4 0 6 5 11 10 11 6 0 10 -2 10 -4z m-170 -55 c5 -11 15
-32 20 -48 10 -27 9 -27 -20 7 -30 35 -38 60 -20 60 5 0 14 -9 20 -19z m-88
-63 c-7 -7 -12 -8 -12 -2 0 14 12 26 19 19 2 -3 -1 -11 -7 -17z m-782 -34 c0
-8 -4 -12 -10 -9 -5 3 -10 10 -10 16 0 5 5 9 10 9 6 0 10 -7 10 -16z m767 -61
c-3 -10 -5 -2 -5 17 0 19 2 27 5 18 2 -10 2 -26 0 -35z m187 1 c18 -17 21 -44
7 -44 -5 0 -13 9 -16 20 -3 11 -11 20 -16 20 -5 0 -9 5 -9 10 0 15 16 12 34
-6z m-114 -180 c0 -8 -4 -12 -10 -9 -5 3 -10 10 -10 16 0 5 5 9 10 9 6 0 10
-7 10 -16z m179 -38 c7 -12 11 -34 9 -47 l-4 -24 -12 27 c-6 14 -15 29 -21 32
-11 7 -4 36 8 36 4 0 13 -11 20 -24z m-989 -6 c0 -5 -7 -10 -15 -10 -8 0 -15
5 -15 10 0 6 7 10 15 10 8 0 15 -4 15 -10z m930 -51 c0 -14 -12 -10 -26 9 -22
29 -16 51 6 23 11 -13 20 -27 20 -32z m-922 -80 c4 -20 -37 -44 -51 -30 -7 7
-5 17 8 31 20 22 38 22 43 -1z m-68 -163 c0 -3 -4 -8 -10 -11 -5 -3 -10 -1
-10 4 0 6 5 11 10 11 6 0 10 -2 10 -4z m1060 -11 c0 -8 -4 -15 -10 -15 -5 0
-10 7 -10 15 0 8 5 15 10 15 6 0 10 -7 10 -15z m-1018 -20 c0 -5 -5 -11 -11
-13 -6 -2 -11 4 -11 13 0 9 5 15 11 13 6 -2 11 -8 11 -13z m225 -57 c-3 -8 -6
-5 -6 6 -1 11 2 17 5 13 3 -3 4 -12 1 -19z m-27 2 c0 -5 -4 -10 -10 -10 -5 0
-10 5 -10 10 0 6 5 10 10 10 6 0 10 -4 10 -10z m-214 -37 c-10 -10 -19 5 -10
18 6 11 8 11 12 0 2 -7 1 -15 -2 -18z m199 -94 c2 5 14 11 25 14 17 4 18 3 8
-16 -7 -12 -13 -26 -14 -32 -1 -5 -6 -19 -10 -29 -5 -14 -4 -17 4 -12 7 4 12
1 13 -6 0 -10 2 -10 6 0 2 6 9 12 14 12 15 0 10 -36 -6 -50 -9 -7 -13 -20 -11
-29 3 -9 0 -29 -7 -44 -12 -27 -12 -27 -25 -7 -10 17 -10 21 3 26 13 5 12 9
-6 25 -12 11 -26 19 -32 19 -5 0 -6 7 -3 15 3 8 8 21 11 28 4 8 -4 13 -20 15
-23 2 -24 0 -15 -18 9 -16 8 -20 -5 -20 -8 0 -15 7 -15 15 0 8 -6 24 -12 35
-10 15 -10 25 -2 38 6 10 15 32 19 50 l7 33 34 -35 c18 -19 36 -31 39 -27z
m295 46 c10 -12 8 -21 -14 -50 -15 -19 -33 -35 -41 -35 -7 0 -20 -3 -29 -6
-12 -5 -16 0 -16 19 0 16 -7 26 -20 30 -18 5 -20 0 -20 -40 0 -53 -23 -56 -28
-4 -5 49 15 89 46 94 63 10 110 7 122 -8z m250 -40 c0 -8 -4 -15 -10 -15 -5 0
-10 7 -10 15 0 8 5 15 10 15 6 0 10 -7 10 -15z m-192 -7 c-3 -7 -13 -15 -24
-17 -16 -3 -17 -1 -5 13 16 19 34 21 29 4z m-128 -86 c0 -10 -6 -27 -14 -37
-13 -18 -14 -18 -26 4 -7 14 -8 21 -1 17 5 -4 15 3 21 14 13 25 20 26 20 2z
m576 -29 c-10 -10 -19 5 -10 18 6 11 8 11 12 0 2 -7 1 -15 -2 -18z m-636 -38
c0 -17 -4 -35 -10 -41 -15 -15 -23 -125 -12 -154 10 -24 11 -24 11 9 1 50 12
32 18 -30 5 -48 4 -52 -11 -40 -21 17 -21 17 -32 -49 -9 -56 -26 -73 -32 -32
-4 27 -42 31 -42 4 0 -26 -48 -161 -49 -137 0 11 6 47 15 80 16 64 17 67 64
223 25 86 29 110 21 139 -11 39 -7 53 14 53 7 0 16 8 19 17 6 15 8 15 16 3 6
-8 10 -29 10 -45z m100 9 c0 -8 -5 -12 -10 -9 -6 4 -8 11 -5 16 9 14 15 11 15
-7z m-317 -53 c-2 -6 0 -11 5 -11 25 -1 46 -33 44 -68 -2 -21 4 -54 12 -73 13
-32 13 -41 -6 -99 -37 -118 -41 -133 -49 -209 -13 -119 -66 -168 -101 -96 -10
20 -18 43 -18 52 0 9 -6 21 -14 27 -7 6 -18 41 -24 78 -11 71 -1 143 32 242 9
26 16 62 16 80 0 37 27 99 40 91 5 -3 11 -1 15 4 8 13 51 -3 48 -18z m-203
-39 c0 -10 -11 -28 -25 -40 -27 -23 -30 -22 -16 6 5 9 12 25 15 35 7 23 26 22
26 -1z m15 -50 c0 -18 -20 -15 -23 4 -3 10 1 15 10 12 7 -3 13 -10 13 -16z
m579 -1 c3 -5 -3 -11 -15 -14 -16 -4 -18 -3 -8 9 13 16 16 17 23 5z m-638
-182 l-14 -34 -1 61 c-1 36 4 65 12 73 19 19 22 -59 3 -100z m672 89 c-6 -18
-28 -21 -28 -4 0 9 7 16 16 16 9 0 14 -5 12 -12z m-40 -40 c-6 -18 -28 -21
-28 -4 0 9 7 16 16 16 9 0 14 -5 12 -12z m127 -8 c-3 -4 -23 -8 -46 -8 -31 -1
-38 2 -30 12 11 13 84 10 76 -4z m-191 -31 c-3 -5 -10 -7 -15 -3 -5 3 -7 10
-3 15 3 5 10 7 15 3 5 -3 7 -10 3 -15z m524 -28 c3 -8 -1 -12 -9 -9 -7 2 -15
10 -17 17 -3 8 1 12 9 9 7 -2 15 -10 17 -17z m-603 -56 c0 -10 -6 -20 -12 -22
-8 -3 -13 5 -13 22 0 17 5 25 13 23 6 -3 12 -13 12 -23z m270 -25 c-5 -8 -11
-8 -17 -2 -6 6 -7 16 -3 22 5 8 11 8 17 2 6 -6 7 -16 3 -22z m-115 3 c-1 -5
-11 -21 -24 -37 -16 -19 -26 -24 -31 -17 -4 7 3 22 17 36 24 24 38 31 38 18z
m-156 -42 c23 -9 12 -18 -44 -38 -50 -18 -53 -16 -28 17 22 30 37 35 72 21z
m596 -1 c0 -5 -4 -10 -10 -10 -5 0 -10 5 -10 10 0 6 5 10 10 10 6 0 10 -4 10
-10z m-1045 -39 c3 -5 1 -12 -5 -16 -5 -3 -10 -19 -10 -34 0 -16 -6 -34 -13
-40 -22 -17 -28 -1 -12 30 8 15 15 37 15 49 0 21 14 27 25 11z m675 -11 c0 -5
-4 -10 -10 -10 -5 0 -10 5 -10 10 0 6 5 10 10 10 6 0 10 -4 10 -10z m339 -40
c11 -24 11 -24 -3 -6 -9 11 -16 24 -16 30 0 12 5 7 19 -24z m99 -48 c2 -7 -3
-12 -12 -12 -9 0 -16 7 -16 16 0 17 22 14 28 -4z m-1080 -4 c-2 -6 -10 -14
-16 -16 -7 -2 -10 2 -6 12 7 18 28 22 22 4z m462 -32 c0 -3 -4 -8 -10 -11 -5
-3 -10 -1 -10 4 0 6 5 11 10 11 6 0 10 -2 10 -4z m46 -35 c-8 -13 -36 -15 -36
-3 0 4 5 13 12 20 14 14 34 0 24 -17z m-66 -1 c-20 -13 -33 -13 -25 0 3 6 14
10 23 10 15 0 15 -2 2 -10z"/>
<path d="M7455 6680 c-3 -11 -2 -28 4 -37 8 -15 10 -11 11 20 0 41 -5 47 -15
17z"/>
<path d="M6480 6650 c0 -13 11 -13 30 0 12 8 11 10 -7 10 -13 0 -23 -4 -23
-10z"/>
<path d="M6401 6524 c0 -11 3 -14 6 -6 3 7 2 16 -1 19 -3 4 -6 -2 -5 -13z"/>
<path d="M11140 9045 c0 -5 5 -17 10 -25 5 -8 10 -10 10 -5 0 6 -5 17 -10 25
-5 8 -10 11 -10 5z"/>
<path d="M11160 8995 c0 -5 5 -17 10 -25 5 -8 10 -10 10 -5 0 6 -5 17 -10 25
-5 8 -10 11 -10 5z"/>
<path d="M4347 7271 c-32 -7 -590 -518 -581 -532 3 -5 -4 -21 -15 -35 -25 -32
-28 -24 -5 11 9 14 13 25 10 25 -14 0 -449 -405 -467 -434 -18 -30 -19 -66
-19 -928 0 -802 2 -898 16 -912 14 -14 78 -16 562 -16 489 1 552 3 597 18 93
32 85 -96 85 1400 0 1400 1 1365 -47 1390 -24 12 -101 20 -136 13z m40 -46 c8
-22 -6 -33 -17 -15 -13 20 -12 30 0 30 6 0 13 -7 17 -15z m-72 -105 c-18 -58
-48 -152 -66 -210 -96 -313 -248 -737 -257 -712 -8 24 115 428 176 577 11 28
34 91 52 140 17 50 47 129 66 178 36 91 41 112 24 102 -5 -3 -10 -1 -10 5 0 9
41 31 47 26 1 -1 -13 -49 -32 -106z m100 10 c3 -5 1 -10 -4 -10 -6 0 -11 5
-11 10 0 6 2 10 4 10 3 0 8 -4 11 -10z m-188 -42 c-3 -8 -6 -5 -6 6 -1 11 2
17 5 13 3 -3 4 -12 1 -19z m-97 -54 c0 -8 -5 -12 -10 -9 -6 4 -8 11 -5 16 9
14 15 11 15 -7z m350 -34 c0 -49 -12 -66 -24 -34 -8 21 -8 69 1 77 16 17 23 3
23 -43z m-43 -12 c-3 -7 -5 -2 -5 12 0 14 2 19 5 13 2 -7 2 -19 0 -25z m-27
-38 c0 -5 -2 -10 -4 -10 -3 0 -8 5 -11 10 -3 6 -1 10 4 10 6 0 11 -4 11 -10z
m-440 -45 c-13 -14 -26 -23 -28 -20 -7 7 29 45 41 45 6 0 0 -11 -13 -25z m160
-109 c0 -17 -28 -41 -37 -32 -10 9 16 58 27 51 6 -3 10 -12 10 -19z m356 -82
c-19 -19 -20 -8 -3 54 l12 47 3 -43 c2 -28 -2 -47 -12 -58z m-446 -20 c0 -8
-4 -12 -10 -9 -5 3 -10 13 -10 21 0 8 5 12 10 9 6 -3 10 -13 10 -21z m300 -5
c0 -24 -33 -123 -37 -111 -3 7 0 27 6 44 6 17 11 42 11 54 0 13 5 24 10 24 6
0 10 -5 10 -11z m46 -85 c-7 -19 -36 -18 -36 1 0 9 8 30 17 48 l18 32 3 -33
c2 -19 1 -40 -2 -48z m79 -72 c-5 -13 -8 -14 -15 -3 -5 8 -3 19 3 26 14 15 22
1 12 -23z m-785 18 c0 -5 -5 -10 -11 -10 -5 0 -7 5 -4 10 3 6 8 10 11 10 2 0
4 -4 4 -10z m681 -23 c-10 -9 -11 -8 -5 6 3 10 9 15 12 12 3 -3 0 -11 -7 -18z
m71 -9 c-9 -9 -12 -7 -12 12 0 19 3 21 12 12 9 -9 9 -15 0 -24z m-892 -13
c-13 -14 -26 -23 -28 -20 -3 3 5 16 18 30 13 14 26 23 28 20 3 -3 -5 -16 -18
-30z m810 -27 c-1 -16 -39 -87 -40 -73 0 23 22 85 30 85 6 0 10 -6 10 -12z
m153 -90 c2 -27 1 -48 -3 -48 -13 0 -20 46 -13 81 7 38 9 34 16 -33z m-212 15
c-8 -15 -10 -15 -11 -2 0 17 10 32 18 25 2 -3 -1 -13 -7 -23z m-591 -3 c0 -5
-4 -10 -10 -10 -5 0 -10 5 -10 10 0 6 5 10 10 10 6 0 10 -4 10 -10z m720 -30
c0 -5 -5 -10 -11 -10 -5 0 -7 5 -4 10 3 6 8 10 11 10 2 0 4 -4 4 -10z m-144
-32 c-3 -13 -6 -32 -6 -43 -1 -19 -1 -19 -11 -2 -12 21 -4 67 12 67 7 0 9 -9
5 -22z m116 -47 c-5 -3 -55 -75 -111 -158 -55 -84 -103 -153 -106 -153 -8 0 8
28 64 116 25 40 62 101 81 135 19 34 44 76 55 93 l20 31 3 -29 c2 -16 -1 -32
-6 -35z m-932 8 c0 -22 -4 -23 -31 -8 -20 10 -20 11 -2 24 21 16 33 11 33 -16z
m680 11 c-6 -11 -13 -20 -16 -20 -2 0 0 9 6 20 6 11 13 20 16 20 2 0 0 -9 -6
-20z m-765 -112 c55 -82 165 -228 172 -228 2 0 -3 10 -11 22 -36 51 -6 52 40
1 34 -38 44 -61 22 -46 -8 4 -6 -3 3 -17 9 -14 37 -57 63 -97 32 -50 51 -70
61 -67 8 4 15 1 15 -5 0 -6 -5 -11 -11 -11 -5 0 -7 -6 -3 -12 18 -33 -104 95
-155 162 -263 345 -256 336 -259 311 -2 -15 3 -30 12 -37 14 -10 15 -13 1 -24
-8 -7 -15 -22 -15 -33 0 -11 -3 -17 -7 -13 -8 8 -13 166 -5 179 6 13 24 -7 77
-85z m55 29 c0 -8 -3 -17 -7 -20 -9 -9 -34 13 -27 24 8 14 34 11 34 -4z m1030
-63 c0 -8 -5 -14 -10 -14 -7 0 -8 -13 -4 -35 4 -21 2 -35 -4 -35 -11 0 -21
111 -13 144 3 14 7 12 17 -14 8 -18 14 -39 14 -46z m-762 -90 c15 -77 20 -89
37 -89 13 0 21 -8 23 -22 4 -27 -6 -29 -24 -5 -13 16 -13 16 -14 -1 0 -16 -5
-15 -37 9 -50 37 -65 52 -30 30 16 -10 31 -15 33 -13 3 3 -2 39 -10 81 -19 88
-21 125 -6 110 6 -6 18 -50 28 -100z m809 24 c-2 -13 -4 -3 -4 22 0 25 2 35 4
23 2 -13 2 -33 0 -45z m-641 26 c19 -15 34 -35 34 -47 0 -11 11 -30 25 -43 25
-23 35 -74 14 -74 -6 0 -25 -11 -41 -25 -32 -27 -49 -26 -41 3 2 11 -3 37 -12
58 -17 37 -31 154 -19 154 3 0 21 -12 40 -26z m-561 -101 c-5 -20 -9 -23 -18
-14 -9 9 -9 16 1 31 6 11 13 28 13 37 1 11 3 9 6 -6 3 -12 2 -34 -2 -48z
m1095 40 c0 -10 -32 -43 -41 -43 -5 0 -3 11 3 25 10 22 38 36 38 18z m-1000
-17 c0 -3 -4 -8 -10 -11 -5 -3 -10 -1 -10 4 0 6 5 11 10 11 6 0 10 -2 10 -4z
m400 -11 c0 -8 -4 -15 -10 -15 -5 0 -10 7 -10 15 0 8 5 15 10 15 6 0 10 -7 10
-15z m630 -37 c0 -16 -3 -19 -11 -11 -6 6 -8 16 -5 22 11 17 16 13 16 -11z
m-20 -77 c0 -12 -20 -25 -27 -18 -7 7 6 27 18 27 5 0 9 -4 9 -9z m-1096 -56
c3 -8 9 -15 13 -14 19 3 33 -2 33 -11 0 -13 -57 -7 -72 8 -11 11 -3 32 12 32
4 0 10 -7 14 -15z m456 -27 l-1 -33 -13 25 c-14 25 -13 40 5 40 5 0 9 -15 9
-32z m490 -7 c0 -5 -7 -11 -15 -15 -15 -5 -20 5 -8 17 9 10 23 9 23 -2z m-61
-37 c-14 -18 -24 -11 -15 11 3 9 11 13 16 10 8 -5 7 -11 -1 -21z m-205 -44 c7
-8 21 -20 31 -25 12 -7 19 -27 23 -63 4 -50 3 -54 -39 -99 -38 -41 -48 -47
-79 -45 -23 2 -43 12 -58 29 -22 24 -23 32 -17 91 8 74 -3 76 -30 6 -16 -44
-19 -46 -31 -29 -8 10 -14 26 -14 34 0 8 -10 26 -22 39 l-23 25 23 -12 c27
-14 42 -7 24 11 -7 7 -12 26 -11 43 l0 30 18 -40 17 -39 24 32 c13 18 30 30
36 28 7 -3 27 7 46 20 l33 25 18 -23 c10 -13 24 -30 31 -38z m66 15 c0 -8 -4
-15 -10 -15 -5 0 -10 7 -10 15 0 8 5 15 10 15 6 0 10 -7 10 -15z m-743 -80
c-2 -35 -19 -43 -25 -11 -3 14 13 46 24 46 1 0 2 -16 1 -35z m1132 -93 c0 -20
-4 -46 -8 -56 -8 -20 -8 -20 -13 0 -7 29 3 105 13 98 5 -3 9 -22 8 -42z m-189
-58 c0 -8 -4 -12 -10 -9 -5 3 -10 13 -10 21 0 8 5 12 10 9 6 -3 10 -13 10 -21z
m249 -106 c-1 -68 -4 -107 -8 -88 -6 37 -3 210 5 210 2 0 3 -55 3 -122z m-349
12 c0 21 18 1 23 -27 4 -24 4 -25 -7 -10 -7 9 -15 14 -18 11 -3 -3 -15 7 -26
21 -12 15 -26 24 -31 21 -12 -8 -31 25 -31 51 1 13 13 5 45 -30 25 -27 45 -44
45 -37z m-850 55 c0 -8 -4 -15 -10 -15 -5 0 -7 7 -4 15 4 8 8 15 10 15 2 0 4
-7 4 -15z m850 -1 c0 -8 -4 -12 -10 -9 -5 3 -10 10 -10 16 0 5 5 9 10 9 6 0
10 -7 10 -16z m-715 -26 c-9 -40 -12 -45 -26 -31 -6 6 -6 18 0 36 15 39 34 35
26 -5z m921 -55 c-6 -7 -66 58 -66 72 0 5 16 -7 36 -29 19 -21 33 -41 30 -43z
m-1056 37 c0 -13 5 -18 15 -14 8 4 15 1 15 -6 0 -22 -45 -6 -48 18 -2 12 1 22
7 22 6 0 11 -9 11 -20z m540 -44 c0 -2 -8 -10 -17 -17 -16 -13 -17 -12 -4 4
13 16 21 21 21 13z m415 -144 c43 -56 82 -105 86 -108 5 -3 9 -10 9 -16 0 -20
-152 169 -180 222 -18 36 -3 18 85 -98z m-242 20 c-5 -22 -23 -31 -23 -12 0
10 23 40 27 36 1 -1 0 -12 -4 -24z m-703 11 c0 -5 -4 -15 -10 -23 -11 -18 -25
-7 -17 15 6 15 27 21 27 8z m-10 -104 c0 -33 5 -69 10 -80 8 -14 7 -26 -4 -46
-15 -29 -15 -30 -31 22 -2 8 0 17 4 19 5 3 6 37 3 76 -3 48 -1 70 7 70 7 0 11
-22 11 -61z m163 21 c-6 -21 -21 -35 -29 -27 -2 2 0 16 6 31 11 31 31 27 23
-4z m567 10 c0 -5 -4 -10 -10 -10 -5 0 -10 5 -10 10 0 6 5 10 10 10 6 0 10 -4
10 -10z m350 -19 c0 -6 -4 -13 -10 -16 -5 -3 -10 1 -10 9 0 9 5 16 10 16 6 0
10 -4 10 -9z m-988 -93 c-7 -7 -12 -8 -12 -2 0 6 3 14 7 17 3 4 9 5 12 2 2 -3
-1 -11 -7 -17z m248 3 c0 -5 -9 -11 -21 -14 -16 -4 -18 -3 -8 9 13 16 29 19
29 5z m659 -13 l11 -23 -6 24 c-5 18 -3 22 7 15 20 -12 63 -64 73 -88 10 -25
16 -206 6 -206 -4 0 -38 60 -76 134 -59 116 -67 136 -55 150 18 21 26 20 40
-6z m-652 -40 c-3 -8 -6 -5 -6 6 -1 11 2 17 5 13 3 -3 4 -12 1 -19z m228 -64
c-49 -47 -89 -90 -88 -94 2 -5 -4 -7 -12 -4 -13 5 -12 10 4 33 23 32 95 100
136 129 64 45 46 18 -40 -64z m-395 10 c0 -8 -4 -14 -10 -14 -5 0 -10 9 -10
21 0 11 5 17 10 14 6 -3 10 -13 10 -21z m147 -16 c-3 -8 -6 -5 -6 6 -1 11 2
17 5 13 3 -3 4 -12 1 -19z m-198 -64 c-12 -27 -23 -44 -26 -38 -2 6 6 33 18
60 12 27 23 44 26 38 2 -6 -6 -33 -18 -60z m1040 36 c4 0 12 5 19 12 15 15 17
-169 2 -224 -7 -22 -7 -57 -2 -90 5 -30 4 -58 0 -63 -5 -6 -22 -26 -38 -45
l-29 -35 -1 115 c0 93 5 133 26 208 24 88 24 95 8 106 -12 9 -15 19 -9 32 7
17 8 18 12 2 3 -10 8 -18 12 -18z m-969 -7 c-1 -20 -38 -69 -46 -60 -8 8 24
77 35 77 6 0 11 -8 11 -17z m745 -33 c9 -16 12 -30 7 -30 -10 0 -42 38 -42 50
0 20 20 9 35 -20z m-155 -41 c0 -6 -4 -7 -10 -4 -5 3 -10 11 -10 16 0 6 5 7
10 4 6 -3 10 -11 10 -16z m-603 -11 c-3 -8 -6 -5 -6 6 -1 11 2 17 5 13 3 -3 4
-12 1 -19z m93 -21 c0 -7 -7 -22 -15 -33 -12 -16 -14 -17 -15 -2 0 23 11 48
21 48 5 0 9 -6 9 -13z m41 -18 c-35 -28 -51 -22 -17 7 15 14 31 22 35 19 3 -4
-5 -15 -18 -26z m319 11 c0 -6 -25 -9 -57 -9 -52 1 -54 2 -23 9 53 11 80 11
80 0z m387 -15 c9 -25 -4 -29 -17 -6 -7 15 -7 21 0 21 6 0 13 -7 17 -15z
m-1018 -39 c-14 -24 -25 -34 -31 -28 -7 7 0 21 18 41 35 40 41 34 13 -13z
m667 -2 c-21 -21 -29 -25 -39 -15 -15 15 4 47 27 43 9 -2 16 3 16 10 0 9 3 9
12 0 9 -9 5 -18 -16 -38z m-510 9 c-10 -10 -19 5 -10 18 6 11 8 11 12 0 2 -7
1 -15 -2 -18z m774 -16 c0 -20 -1 -20 -16 -5 -9 9 -13 21 -9 27 10 16 25 3 25
-22z m-823 1 c-3 -8 -6 -5 -6 6 -1 11 2 17 5 13 3 -3 4 -12 1 -19z m123 -28
c0 -5 -5 -10 -11 -10 -5 0 -7 5 -4 10 3 6 8 10 11 10 2 0 4 -4 4 -10z m764 -6
c4 -9 4 -19 2 -21 -8 -8 -26 8 -26 23 0 19 16 18 24 -2z m-874 -14 c-11 -20
-30 -28 -30 -12 0 11 22 32 32 32 5 0 4 -9 -2 -20z m970 -11 c0 -11 -4 -17
-10 -14 -5 3 -10 13 -10 21 0 8 5 14 10 14 6 0 10 -9 10 -21z m-202 -53 c18
-25 26 -43 18 -40 -13 5 -66 76 -66 89 0 12 16 -5 48 -49z m-846 12 c-7 -7
-12 -8 -12 -2 0 6 3 14 7 17 3 4 9 5 12 2 2 -3 -1 -11 -7 -17z m978 1 c7 -11
9 -23 6 -27 -3 -3 -6 -1 -6 5 0 6 -9 13 -20 16 -23 6 -27 27 -5 27 8 0 19 -9
25 -21z m55 -19 c3 -5 1 -10 -4 -10 -6 0 -11 5 -11 10 0 6 2 10 4 10 3 0 8 -4
11 -10z m-845 -4 c0 -3 -4 -8 -10 -11 -5 -3 -10 -1 -10 4 0 6 5 11 10 11 6 0
10 -2 10 -4z m500 -11 c0 -8 -7 -15 -15 -15 -16 0 -20 12 -8 23 11 12 23 8 23
-8z m110 -45 c0 -5 -2 -10 -4 -10 -3 0 -8 5 -11 10 -3 6 -1 10 4 10 6 0 11 -4
11 -10z m-684 -9 c-4 -5 -30 -28 -59 -52 l-52 -43 50 52 c43 46 77 69 61 43z
m152 -3 c-2 -6 -10 -14 -16 -16 -7 -2 -10 2 -6 12 7 18 28 22 22 4z m656 -4
c4 -10 1 -14 -6 -12 -15 5 -23 28 -10 28 5 0 13 -7 16 -16z m106 -30 c0 -20
-13 -17 -27 5 -10 16 -9 18 8 14 10 -3 19 -12 19 -19z m-1060 -14 c0 -11 -7
-20 -15 -20 -13 0 -13 3 -3 20 7 11 14 20 15 20 2 0 3 -9 3 -20z m250 16 c0
-2 -7 -9 -15 -16 -12 -10 -15 -10 -15 4 0 9 7 16 15 16 8 0 15 -2 15 -4z m790
-36 c0 -5 -4 -10 -10 -10 -5 0 -10 5 -10 10 0 6 5 10 10 10 6 0 10 -4 10 -10z
m-880 -26 c0 -8 -5 -12 -10 -9 -6 4 -8 11 -5 16 9 14 15 11 15 -7z m200 6 c0
-5 -4 -10 -10 -10 -5 0 -10 5 -10 10 0 6 5 10 10 10 6 0 10 -4 10 -10z m150
-11 c0 -5 -10 -9 -21 -9 -18 0 -19 2 -9 15 12 15 30 12 30 -6z"/>
<path d="M11250 6107 c-14 -7 -52 -58 -88 -117 -113 -186 -293 -433 -431 -595
-267 -310 -666 -643 -1006 -838 -223 -128 -563 -256 -856 -321 -252 -56 -297
-59 -1159 -62 -501 -2 -821 -7 -865 -14 -114 -18 -193 -61 -280 -151 -40 -43
-83 -96 -94 -117 -26 -51 -631 -1038 -1036 -1692 -56 -91 -173 -280 -260 -420
-87 -140 -209 -335 -272 -433 -62 -97 -113 -186 -113 -195 0 -43 -14 -42 892
-42 731 0 873 2 896 14 51 27 109 101 187 236 430 750 697 1210 931 1610 130
222 130 221 281 221 363 -1 836 106 1248 281 789 335 1444 952 1820 1713 101
205 162 358 244 607 65 201 82 288 61 313 -15 18 -66 19 -100 2z m-32 -134
c-17 -39 -141 -230 -223 -343 -498 -692 -1199 -1210 -1936 -1431 -283 -85
-517 -119 -849 -124 l-255 -3 235 8 c273 9 437 28 645 75 271 60 483 137 745
271 549 279 992 660 1385 1188 92 125 230 334 240 367 4 10 10 19 15 19 5 0 4
-12 -2 -27z m-4506 -1933 c-57 -26 -150 -120 -192 -195 -45 -80 -308 -516
-383 -634 -76 -121 -220 -354 -472 -766 -111 -181 -231 -377 -267 -435 -73
-119 -330 -535 -420 -683 -33 -54 -62 -96 -64 -94 -6 5 47 94 290 487 107 173
274 446 372 605 98 160 291 472 430 695 138 223 309 502 379 620 165 277 190
315 239 354 48 39 95 65 116 65 8 0 -4 -8 -28 -19z m-1829 -2801 c-10 -17 -24
-36 -32 -42 -8 -7 -2 7 14 31 32 49 45 57 18 11z"/>
</g>
</svg>
